# xmcd CD database file
#
# Track frame offsets:
#	150
#	25139
#	44852
#	64213
#	89624
#	110872
#	129949
#	148009
#	175416
#	203872
#	225049
#	242715
#
# Disc length: 3545 seconds
#
# Revision: 0
# Processed by: cddbd v1.5.2PL0 Copyright (c) Steve Scherf et al.
# Submitted via: CDex 1.70beta2
#
DISCID=ad0dd70c
DTITLE=Kelley Hunt - Mercy
DYEAR=2008
DGENRE=Country
TTITLE0=You got to be the vessel
TTITLE1=Lone Star Road
TTITLE2=Love
TTITLE3=Freedom Day
TTITLE4=Emerald City
TTITLE5=Mercy
TTITLE6=Give me a sign
TTITLE7=You can't fool me anymore
TTITLE8=Drowning man
TTITLE9=That ain't love
TTITLE10=Wig chalet
TTITLE11=Mountain to move
EXTD=YEAR: 2008
EXTT0=
EXTT1=
EXTT2=
EXTT3=
EXTT4=
EXTT5=
EXTT6=
EXTT7=
EXTT8=
EXTT9=
EXTT10=
EXTT11=
PLAYORDER=
